<svg width="20" height="20" viewBox="0 0 20 20" fill="none" xmlns="http://www.w3.org/2000/svg">
<path fill-rule="evenodd" clip-rule="evenodd" d="M10.0002 2.49998C5.85766 2.49998 2.50016 5.85748 2.50016 9.99998C2.50016 14.1425 5.85766 17.5 10.0002 17.5C14.1427 17.5 17.5002 14.1425 17.5002 9.99998C17.5002 5.85748 14.1427 2.49998 10.0002 2.49998ZM0.833496 9.99998C0.833496 4.93748 4.93766 0.833313 10.0002 0.833313C15.0627 0.833313 19.1668 4.93748 19.1668 9.99998C19.1668 15.0625 15.0627 19.1666 10.0002 19.1666C4.93766 19.1666 0.833496 15.0625 0.833496 9.99998ZM9.16683 6.66665C9.16683 6.20665 9.54016 5.83331 10.0002 5.83331C10.4602 5.83331 10.8335 6.20665 10.8335 6.66665C10.8335 7.12665 10.4602 7.49998 10.0002 7.49998C9.54016 7.49998 9.16683 7.12665 9.16683 6.66665ZM9.16683 13.3333C9.16683 13.7933 9.54016 14.1666 10.0002 14.1666C10.4602 14.1666 10.8335 13.7933 10.8335 13.3333V9.16665C10.8335 8.70665 10.4602 8.33331 10.0002 8.33331C9.54016 8.33331 9.16683 8.70665 9.16683 9.16665V13.3333Z" fill="#8FA4B3"/>
</svg>
